<?xml version="1.0" encoding="UTF-8" standalone="no"?>
<!-- Created with Inkscape (http://www.inkscape.org/) -->

<svg
   width="169.16241mm"
   height="158.16287mm"
   viewBox="0 0 169.16241 158.16287"
   version="1.1"
   id="svg1"
   xml:space="preserve"
   xmlns="http://www.w3.org/2000/svg"
   xmlns:svg="http://www.w3.org/2000/svg"><defs
     id="defs1" /><g
     id="layer1"
     transform="translate(-323.77915,29.281194)"><g
       id="g25"><path
         style="fill:none;stroke:#000000;stroke-opacity:1"
         d="m 461.88252,0.73195716 c 1.23752,-1.23752305 0.6368,-3.16532066 -1.15601,-3.70980326 -1.25454,-0.3810072 -2.95706,0.9165042 -2.95706,2.25361218 0,0.30735546 0.34803,0.90685694 0.7734,1.33222548 1.01078,1.01078294 2.40124,1.06239554 3.33967,0.1239656 z"
         id="path25" /><path
         style="fill:none;stroke:#000000;stroke-opacity:1"
         d="m 357.91571,0.74638906 c 1.13576,-1.13575774 1.17281,-2.04289686 0.12618,-3.08951906 -0.93153,-0.9315305 -1.75321,-0.978629 -2.95778,-0.1695385 -1.51134,1.0151366 -1.31287,2.89817262 0.39422,3.7403607 1.17242,0.5784096 1.42817,0.5279079 2.43738,-0.48130314 z"
         id="path24" /><path
         style="fill:none;stroke:#000000;stroke-opacity:1"
         d="m 349.03753,29.228783 c 1.15252,-1.03029 1.16214,-2.269286 0.0255,-3.284863 -1.3505,-1.206674 -3.05406,-0.82216 -3.74471,0.84523 -0.4452,1.074797 -0.15388,1.956366 0.86135,2.606517 1.16045,0.743155 1.88733,0.700709 2.85785,-0.166884 z"
         id="path23" /><path
         style="fill:none;stroke:#000000;stroke-opacity:1"
         d="m 469.76536,29.972596 c 1.80669,-0.6869 2.311,-2.56664 1.02034,-3.803165 -1.06923,-1.024385 -2.42191,-0.982576 -3.33544,0.10309 -0.9353,1.111547 -0.87568,1.958578 0.21461,3.048867 0.97734,0.977343 1.1235,1.022658 2.10049,0.651208 z"
         id="path22" /><path
         style="fill:none;stroke:#000000;stroke-opacity:1"
         d="m 348.42722,52.27631 c 2.43922,-2.421645 5.67608,-5.527966 7.19301,-6.902934 l 2.75807,-2.499942 4.1211,0.05227 c 5.14501,0.06526 4.78256,0.115751 4.78256,-0.666196 0,-0.649331 0.038,-0.661458 2.07512,-0.661458 1.14132,0 3.52257,-0.07783 5.29167,-0.172952 l 3.21654,-0.172952 V 37.58864 c 0,-2.014929 -0.0298,-3.685265 -0.0661,-3.711858 -0.0364,-0.02659 -2.74505,-0.11589 -6.01927,-0.198438 l -5.95312,-0.150086 -0.0795,-1.086929 c -0.12078,-1.65081 -0.45367,-1.738771 -6.21393,-1.641963 -4.93543,0.08295 -4.94272,0.08395 -5.38797,0.744518 -0.92589,1.373634 -2.80222,2.889097 -4.11829,3.326223 -1.90401,0.632411 -4.54551,0.412459 -6.11869,-0.50949 -4.42929,-2.595736 -5.17958,-9.115764 -1.43797,-12.496078 2.34786,-2.121158 5.34298,-2.661294 8.07061,-1.455448 1.50812,0.666718 3.25407,2.374288 3.97637,3.888962 l 0.45851,0.961505 6.42419,-0.192081 c 4.81442,-0.143949 6.51909,-0.11332 6.80291,0.122233 0.2083,0.172872 0.50415,0.236795 0.65745,0.14205 0.1533,-0.09475 0.59129,0.0736 0.97332,0.374097 0.75301,0.592318 2.8468,0.720652 6.14066,0.376377 l 1.62631,-0.169983 v -3.2696 -3.2696 h 1.98437 1.98438 v -3.96875 c 0,-2.182812 -0.0893,-3.969078 -0.19844,-3.96948 -0.10914,-4.02e-4 -2.2225,-1.7809651 -4.69635,-3.956808 l -4.49792,-3.9560737 -2.67206,-0.011942 c -1.46963,-0.00657 -3.57044,-0.087883 -4.66847,-0.1807002 l -1.99641,-0.1687583 -0.7008,1.0589871 c -1.02892,1.554797 -2.94522,2.5087124 -5.3497,2.6630225 -1.70327,0.1093092 -2.10012,0.040202 -3.38826,-0.5900239 -2.58398,-1.2642259 -4.13643,-3.6964498 -4.31685,-6.76321895 -0.20917,-3.55553345 0.72018,-5.29058045 3.69198,-6.89276415 3.91971,-2.1132229 8.19392,-0.6530982 10.48557,3.5820033 0.47192,0.8721373 0.8918,1.3260747 1.24208,1.3428387 0.29104,0.013929 2.67982,0.04569 5.30838,0.070582 l 4.77922,0.045257 5.26307,4.8286455 c 7.29663,6.6943481 7.59301,6.9566338 8.25717,7.3075128 0.56962,0.3009263 0.59149,0.4619153 0.66146,4.8692993 l 0.0724,4.558083 3.78532,0.0735 3.78533,0.0735 -0.15705,-4.306835 c -0.0864,-2.368755 -0.21234,-4.745393 -0.27991,-5.2814143 -0.11372,-0.9021336 -0.0687,-0.9808092 0.60506,-1.0583334 l 0.72791,-0.08375 -0.007,-2.1828124 c -0.004,-1.2005468 -0.0336,-4.5293952 -0.0661,-7.39744083 l -0.0592,-5.21462837 -7.31586,-7.3330087 -7.31586,-7.333009 -15.50445,0.124816 -15.50445,0.124815 -4.36562,4.318531 c -2.4011,2.375193 -6.77216,6.6855404 -9.71348,9.5785513 l -5.34785,5.2600198 -0.18153,22.9773339 -0.18153,22.977334 6.05639,6.060685 c 3.33102,3.333377 6.0857,6.060686 6.12152,6.060686 0.0358,0 2.06085,-1.981347 4.50007,-4.402993 z"
         id="path21" /><path
         style="fill:none;stroke:#000000;stroke-opacity:1"
         d="m 484.57795,44.330157 c 0.11984,-0.205342 0.2389,-10.562127 0.26459,-23.015077 l 0.0467,-22.6417276 -8.46667,-8.3320617 c -4.65666,-4.5826337 -9.07106,-8.8516877 -9.80978,-9.4867857 l -1.34312,-1.154724 -15.42886,-0.299034 -15.42886,-0.299034 -7.50354,7.500077 -7.50354,7.5000761 v 7.0793446 c 0,6.1163619 0.054,7.0793446 0.39687,7.0793446 0.33589,0 0.39723,0.6404318 0.39918,4.1671877 10e-4,2.291953 0.0757,4.778439 0.16551,5.525526 l 0.1632,1.358339 3.67095,0.03115 3.67096,0.03116 0.0341,-1.124911 c 0.23049,-7.590531 0.36448,-9.0622729 0.82176,-9.0263269 0.4043,0.031781 6.99795,-5.6726766 11.05034,-9.56013291 0.80036,-0.76779079 1.69333,-1.51465719 1.98437,-1.65970319 0.29104,-0.1450461 2.87289,-0.3498964 5.73744,-0.4552229 l 5.20827,-0.1915028 0.72971,-1.4422353 c 0.85483,-1.6895512 2.33317,-3.1116039 4.00231,-3.8499466 0.92646,-0.409817 1.60833,-0.5042184 3.0751,-0.4257331 4.26996,0.2284813 7.05082,3.0921869 7.08946,7.3006501 0.0215,2.3391922 -0.44818,3.8119311 -1.6516,5.1790875 -1.51668,1.7230466 -3.42894,2.6457935 -5.53028,2.668607 -1.4479,0.015719 -2.02385,-0.1248651 -3.51663,-0.8583739 -1.05889,-0.5203055 -2.10377,-1.2738027 -2.5683,-1.8520833 l -0.78314,-0.9749111 -4.68695,0.2247756 -4.68694,0.2247755 -3.1936,2.6776362 c -1.75648,1.4726998 -3.87821,3.356323 -4.71495,4.1858281 l -1.52136,1.508193 v 3.857624 3.857625 h 2.15645 2.15644 l -0.17609,2.899248 c -0.0969,1.594587 -0.24655,3.082868 -0.33267,3.307292 -0.13685,0.356642 0.35012,0.408043 3.86578,0.408043 3.691,0 4.08813,-0.04683 4.82073,-0.56849 0.78079,-0.555972 0.95064,-0.565432 7.71376,-0.429618 l 6.91539,0.138871 0.95677,-1.615981 c 2.46423,-4.162066 7.59423,-5.024147 11.29322,-1.897789 2.18608,1.847661 3.05683,5.903494 1.91629,8.925877 -1.03713,2.748352 -3.99062,4.728447 -7.0044,4.695933 -2.22781,-0.02404 -4.52845,-1.317953 -5.83896,-3.28392 l -0.79375,-1.19075 -5.764,-0.0058 c -6.37684,-0.0064 -7.0642,0.143816 -7.07234,1.545967 -0.008,1.428198 -0.0248,1.431915 -5.78591,1.304682 l -5.32249,-0.117562 v 3.789915 3.789915 h 2.86926 c 1.57809,0 4.13793,0.07762 5.68854,0.1725 l 2.81928,0.172499 v 0.753542 c 0,0.414449 0.0893,0.754631 0.19844,0.755961 0.10914,0.0013 2.10344,0.07775 4.43177,0.169828 l 4.23333,0.167411 2.64584,2.445837 c 1.4552,1.34521 4.55002,4.35999 6.87736,6.69951 l 4.23152,4.253673 5.95493,-6.110362 c 3.27522,-3.360699 6.05298,-6.278369 6.17281,-6.483712 z"
         id="path20" /><path
         style="fill:none;stroke:#000000;stroke-opacity:1"
         d="m 461.72421,67.870194 6.64854,-6.800774 -5.59421,-5.598755 -5.59422,-5.598755 -2.81629,-0.17653 c -3.09254,-0.193845 -4.53608,-0.02368 -4.53608,0.534704 0,0.297433 -1.04079,0.363803 -5.70503,0.363803 h -5.70503 l 0.0826,3.63802 c 0.0606,2.667358 0.17088,3.646845 0.41337,3.671094 0.1819,0.01819 2.71198,0.04796 5.62239,0.06615 2.91042,0.01819 5.29167,0.136407 5.29167,0.262705 0,0.126298 1.13384,1.341547 2.51964,2.700553 l 2.51964,2.470921 -0.0942,5.633821 c -0.0518,3.098602 -0.006,5.633822 0.10222,5.633822 0.10803,0 3.18827,-3.060349 6.84497,-6.800775 z"
         id="path19" /><path
         style="fill:none;stroke:#000000;stroke-opacity:1"
         d="m 361.91711,68.453261 c -0.0989,-4.151459 -0.0583,-6.217708 0.12206,-6.217708 0.1486,0 1.12113,-0.726521 2.16118,-1.61449 1.04004,-0.88797 2.14899,-1.831091 2.46434,-2.095826 0.49612,-0.4165 1.28019,-0.502697 5.82083,-0.639916 l 5.24748,-0.158579 0.0736,-3.566428 0.0736,-3.566427 h -5.16684 c -3.22131,0 -5.16684,-0.09829 -5.16684,-0.261033 0,-0.606322 -1.9538,-1.061884 -4.55417,-1.061884 h -2.63747 l -1.40869,1.203481 c -0.77478,0.661915 -3.46339,3.34924 -5.97468,5.971833 l -4.56599,4.768353 6.72428,6.728166 c 3.69836,3.700491 6.77179,6.728166 6.82985,6.728166 0.0581,0 0.0389,-2.797969 -0.0426,-6.217708 z"
         id="path18" /><path
         style="fill:none;stroke:#000000;stroke-opacity:1"
         d="m 393.26286,98.020447 3.88157,-3.902604 0.2059,-2.513542 c 0.32669,-3.988168 0.31723,-4.088189 -0.39646,-4.189201 l -0.62287,-0.08816 0.0937,-5.335798 0.0937,-5.335798 -3.50573,-0.07383 -3.50573,-0.07382 v 3.711846 3.711846 h -3.83646 -3.83646 v -3.704168 -3.704166 h -1.98437 -1.98438 V 70.66859 64.814127 l -4.2252,0.151988 c -3.82849,0.137718 -4.30049,0.207652 -5.02708,0.744845 l -0.80189,0.592857 v 4.142036 c 0,2.278119 0.0776,5.584875 0.17241,7.348345 l 0.1724,3.20631 10.43207,10.461271 c 5.73764,5.7537 10.51335,10.461271 10.61268,10.461271 0.0993,0 1.92731,-1.75617 4.06218,-3.902603 z"
         id="path17" /><path
         style="fill:none;stroke:#000000;stroke-opacity:1"
         d="m 448.89555,73.270567 c -0.16467,-6.547491 -0.22615,-7.245675 -0.67981,-7.719525 -0.44756,-0.467487 -0.94649,-0.531777 -4.86009,-0.626253 l -4.36133,-0.105284 -0.0713,5.917919 -0.0713,5.91792 -1.91083,0.07759 -1.91084,0.07759 -0.0735,3.561192 c -0.0404,1.958655 -0.16283,3.560849 -0.27197,3.560432 -0.10914,-4.17e-4 -1.86532,-7.58e-4 -3.90261,-7.58e-4 h -3.70416 v -3.57188 -3.571875 h -3.33262 -3.33262 l 0.0736,1.521354 c 0.0405,0.836745 0.0519,3.090651 0.0253,5.008681 -0.047,3.398281 -0.0635,3.489486 -0.64359,3.571875 -0.58314,0.08282 -0.59644,0.162976 -0.65037,3.921006 l -0.0551,3.836458 4.1561,3.788612 4.1561,3.788609 10.80097,-10.877552 10.80096,-10.877555 z"
         id="path16" /><path
         style="fill:none;stroke:#000000;stroke-opacity:1"
         d="m 423.01414,106.45185 c 0.0206,-0.0897 -1.85266,-1.91935 -4.16271,-4.06578 -3.40424,-3.163114 -4.3454,-3.902603 -4.96687,-3.902603 h -0.76677 l -0.2299,-5.622395 -0.2299,-5.622396 -0.63366,-0.08957 -0.63367,-0.08957 0.17395,-2.864076 c 0.0957,-1.575241 0.0973,-3.861867 0.004,-5.08139 l -0.17044,-2.217314 -3.1345,-0.07507 -3.1345,-0.07507 -0.0718,5.246038 -0.0718,5.246037 -0.72229,0.08321 -0.72229,0.08321 -0.0715,5.473043 -0.0715,5.473043 -0.92604,0.08516 c -0.77091,0.07089 -1.4136,0.560683 -3.83646,2.923703 -1.60073,1.56121 -3.48257,3.31669 -4.18187,3.90109 l -1.27146,1.06254 7.74422,7.44216 7.74422,7.44215 7.15328,-7.29648 c 3.9343,-4.01306 7.1701,-7.36991 7.19067,-7.45965 z"
         id="path15" /><path
         style="fill:none;stroke:#000000;stroke-opacity:1"
         d="M 369.7955,94.039876 C 350.87779,75.159733 332.89936,57.273737 329.84342,54.293219 l -5.55625,-5.419124 -0.004,-26.722915 -0.004,-26.7229157 12.09268,-12.0666763 12.09268,-12.066677 18.86775,0.07402 18.86775,0.07402 9.14812,9.222756 9.14812,9.222756 -0.11011,9.26604697 c -0.0979,8.23503303 -0.0633,9.30490913 0.31073,9.61531533 0.35745,0.2966619 0.42084,1.0992886 0.42084,5.3288337 v 4.979564 l 3.34152,0.08127 c 2.43868,0.05931 3.37466,-0.0055 3.46415,-0.239708 0.0674,-0.176536 -0.006,-2.539613 -0.16402,-5.251281 -0.28245,-4.8581525 -0.27853,-4.9368776 0.26786,-5.3793228 l 0.55452,-0.4490165 -0.32295,-8.67109106 -0.32295,-8.67109094 2.33412,-2.4296517 c 1.28377,-1.336309 5.54483,-5.674105 9.46902,-9.639548 l 7.1349,-7.209895 18.67348,0.0072 18.67347,0.0072 12.11032,12.054854 12.11033,12.0548548 -0.007,26.6316622 -0.007,26.631663 -13.56616,13.627622 c -7.46139,7.495192 -25.32779,25.444575 -39.7031,39.887516 l -26.13694,26.25989 -4.41435,-0.007 -4.41435,-0.007 z"
         id="path14" /></g></g></svg>
